<?xml version="1.0" encoding="utf-8"?>
<svg version="1.1" xmlns:xlink="http://www.w3.org/1999/xlink" width="19px" height="19px" xmlns="http://www.w3.org/2000/svg">
  <g transform="matrix(1 0 0 1 -1605 -467 )">
    <path d="M 17.2637931034483 3.10551724137931  C 16.1492887510033 1.55810159751774  14.3552409682505 0.645211977450334  12.448275862069 0.655172413793103  C 9.19170026823911 0.655172413793103  6.55172413793104 3.29514854410118  6.55172413793103 6.55172413793103  C 6.55115332280943 7.13127636603593  6.63727870525075 7.70765392545092  6.80724137931035 8.26172413793103  L 0 15.0689655172414  L 0 19  L 3.93103448275862 19  L 10.738275862069 12.1927586206897  C 11.2987253797165 12.3647209560211  11.881685837592 12.4521443050394  12.4679235936296 12.4521443050394  C 15.5380150390588 12.4521443050394  18.0944119839479 10.0964134055613  18.3448275862069 7.03655172413793  C 18.4771011580457 5.63811850078164  18.092528634711 4.23967296138267  17.2637931034483 3.10551724137931  Z M 16.3203448275862 9.0151724137931  C 15.4776734260732 10.3384452862196  14.0170794295518 11.1391770203531  12.448275862069 11.1379310344828  C 12.0042827487261 11.1361872760075  11.5628957247861 11.0699792224165  11.1379310344828 10.9413793103448  L 10.3844827586207 10.7120689655172  L 9.82758620689655 11.2689655172414  L 7.74413793103448 13.3524137931034  L 6.82034482758621 12.448275862069  L 5.89655172413793 13.3720689655172  L 6.80068965517241 14.2762068965517  L 5.75896551724138 15.3179310344828  L 4.8548275862069 14.4137931034483  L 3.93103448275862 15.3375862068966  L 4.8351724137931 16.241724137931  L 3.38724137931034 17.6896551724138  L 1.31034482758621 17.6896551724138  L 1.31034482758621 15.6127586206897  L 7.73103448275862 9.17241379310345  L 8.28793103448276 8.61551724137931  L 8.09793103448276 7.99310344827586  C 7.41773559158773 5.85416889004952  8.35256953833382 3.53358109283275  10.3255172413793 2.46344827586207  C 10.9812794871191 2.12063940933597  11.7102531533492 1.94159340863359  12.4502139914391 1.94159340863359  C 14.9311904296081 1.94159340863359  16.962362660404 3.9145547801941  17.0344827586207 6.39448275862069  C 17.079948788299 7.32162747965907  16.8298915635516 8.23926867139262  16.3203448275862 9.0151724137931  Z " fill-rule="nonzero" fill="#aaaaaa" stroke="none" transform="matrix(1 0 0 1 1605 467 )" />
  </g>
</svg>